<mxfile host="app.diagrams.net" agent="Mozilla/5.0 (Windows NT 10.0; Win64; x64; rv:143.0) Gecko/20100101 Firefox/143.0" version="28.2.5">
  <diagram name="Page-1" id="vHuglg1KWLUAU9gZYZ2E">
    <mxGraphModel grid="1" page="1" gridSize="10" guides="1" tooltips="1" connect="1" arrows="1" fold="1" pageScale="1" pageWidth="827" pageHeight="1169" math="0" shadow="0">
      <root>
        <mxCell id="0" />
        <mxCell id="1" parent="0" />
        <mxCell id="Qr8qyrYhCx96E9Ala4DI-2" value="V_checkout" style="rounded=0;whiteSpace=wrap;html=1;fillColor=#ffe6cc;strokeColor=#d79b00;" vertex="1" parent="1">
          <mxGeometry x="221" y="50" width="120" height="60" as="geometry" />
        </mxCell>
        <mxCell id="Qr8qyrYhCx96E9Ala4DI-3" value="&lt;div&gt;C_orders&lt;/div&gt;&lt;div&gt;(route.ts)&lt;/div&gt;" style="rounded=0;whiteSpace=wrap;html=1;fillColor=#e1d5e7;strokeColor=#9673a6;" vertex="1" parent="1">
          <mxGeometry x="630" y="50" width="120" height="60" as="geometry" />
        </mxCell>
        <mxCell id="Qr8qyrYhCx96E9Ala4DI-5" value="Actor" style="shape=umlActor;verticalLabelPosition=bottom;verticalAlign=top;html=1;outlineConnect=0;" vertex="1" parent="1">
          <mxGeometry x="70" y="50" width="30" height="60" as="geometry" />
        </mxCell>
        <mxCell id="Qr8qyrYhCx96E9Ala4DI-6" style="edgeStyle=orthogonalEdgeStyle;rounded=0;orthogonalLoop=1;jettySize=auto;html=1;exitX=0.5;exitY=1;exitDx=0;exitDy=0;" edge="1" parent="1" source="Qr8qyrYhCx96E9Ala4DI-2" target="Qr8qyrYhCx96E9Ala4DI-2">
          <mxGeometry relative="1" as="geometry" />
        </mxCell>
        <mxCell id="Qr8qyrYhCx96E9Ala4DI-7" value="" style="endArrow=none;dashed=1;html=1;dashPattern=1 3;strokeWidth=2;rounded=0;entryX=0.5;entryY=0.5;entryDx=0;entryDy=0;entryPerimeter=0;" edge="1" parent="1" target="Qr8qyrYhCx96E9Ala4DI-5">
          <mxGeometry width="50" height="50" relative="1" as="geometry">
            <mxPoint x="85" y="785" as="sourcePoint" />
            <mxPoint x="107" y="180" as="targetPoint" />
          </mxGeometry>
        </mxCell>
        <mxCell id="Qr8qyrYhCx96E9Ala4DI-8" value="" style="endArrow=none;dashed=1;html=1;dashPattern=1 3;strokeWidth=2;rounded=0;entryX=0.5;entryY=1;entryDx=0;entryDy=0;" edge="1" parent="1" target="Qr8qyrYhCx96E9Ala4DI-3">
          <mxGeometry width="50" height="50" relative="1" as="geometry">
            <mxPoint x="690" y="785" as="sourcePoint" />
            <mxPoint x="930" y="380" as="targetPoint" />
          </mxGeometry>
        </mxCell>
        <mxCell id="Qr8qyrYhCx96E9Ala4DI-10" value="" style="endArrow=classic;html=1;rounded=0;" edge="1" parent="1">
          <mxGeometry width="50" height="50" relative="1" as="geometry">
            <mxPoint x="90" y="170" as="sourcePoint" />
            <mxPoint x="280" y="170" as="targetPoint" />
          </mxGeometry>
        </mxCell>
        <mxCell id="Qr8qyrYhCx96E9Ala4DI-11" value="Accede al checkout" style="edgeLabel;html=1;align=center;verticalAlign=middle;resizable=0;points=[];" connectable="0" vertex="1" parent="Qr8qyrYhCx96E9Ala4DI-10">
          <mxGeometry x="-0.1758" y="4" relative="1" as="geometry">
            <mxPoint x="8" y="-6" as="offset" />
          </mxGeometry>
        </mxCell>
        <mxCell id="Qr8qyrYhCx96E9Ala4DI-12" value="" style="endArrow=classic;html=1;rounded=0;" edge="1" parent="1">
          <mxGeometry width="50" height="50" relative="1" as="geometry">
            <mxPoint x="281" y="220" as="sourcePoint" />
            <mxPoint x="451" y="220" as="targetPoint" />
          </mxGeometry>
        </mxCell>
        <mxCell id="Qr8qyrYhCx96E9Ala4DI-13" value="Renderiza formulario" style="text;html=1;align=center;verticalAlign=middle;resizable=0;points=[];autosize=1;strokeColor=none;fillColor=none;" vertex="1" parent="1">
          <mxGeometry x="306" y="190" width="130" height="30" as="geometry" />
        </mxCell>
        <mxCell id="Qr8qyrYhCx96E9Ala4DI-14" value="V_checkout-form" style="rounded=0;whiteSpace=wrap;html=1;fillColor=#ffe6cc;strokeColor=#d79b00;" vertex="1" parent="1">
          <mxGeometry x="391" y="50" width="120" height="60" as="geometry" />
        </mxCell>
        <mxCell id="Qr8qyrYhCx96E9Ala4DI-15" value="" style="endArrow=none;dashed=1;html=1;dashPattern=1 3;strokeWidth=2;rounded=0;entryX=0.5;entryY=1;entryDx=0;entryDy=0;" edge="1" parent="1" target="Qr8qyrYhCx96E9Ala4DI-14">
          <mxGeometry width="50" height="50" relative="1" as="geometry">
            <mxPoint x="451" y="785" as="sourcePoint" />
            <mxPoint x="481" y="250" as="targetPoint" />
          </mxGeometry>
        </mxCell>
        <mxCell id="Qr8qyrYhCx96E9Ala4DI-16" value="orders" style="whiteSpace=wrap;html=1;fillColor=#d5e8d4;strokeColor=#82b366;" vertex="1" parent="1">
          <mxGeometry x="974" y="50" width="120" height="60" as="geometry" />
        </mxCell>
        <mxCell id="Qr8qyrYhCx96E9Ala4DI-17" value="" style="endArrow=none;dashed=1;html=1;dashPattern=1 3;strokeWidth=2;rounded=0;entryX=0.5;entryY=1;entryDx=0;entryDy=0;" edge="1" parent="1" target="Qr8qyrYhCx96E9Ala4DI-16">
          <mxGeometry width="50" height="50" relative="1" as="geometry">
            <mxPoint x="1030" y="785" as="sourcePoint" />
            <mxPoint x="994" y="300" as="targetPoint" />
          </mxGeometry>
        </mxCell>
        <mxCell id="Qr8qyrYhCx96E9Ala4DI-18" value="" style="endArrow=none;dashed=1;html=1;dashPattern=1 3;strokeWidth=2;rounded=0;entryX=0.5;entryY=1;entryDx=0;entryDy=0;" edge="1" parent="1" target="Qr8qyrYhCx96E9Ala4DI-2">
          <mxGeometry width="50" height="50" relative="1" as="geometry">
            <mxPoint x="281" y="785" as="sourcePoint" />
            <mxPoint x="291" y="290" as="targetPoint" />
          </mxGeometry>
        </mxCell>
        <mxCell id="Qr8qyrYhCx96E9Ala4DI-21" value="" style="endArrow=classic;html=1;rounded=0;" edge="1" parent="1">
          <mxGeometry width="50" height="50" relative="1" as="geometry">
            <mxPoint x="90" y="250" as="sourcePoint" />
            <mxPoint x="450" y="250" as="targetPoint" />
          </mxGeometry>
        </mxCell>
        <mxCell id="Qr8qyrYhCx96E9Ala4DI-22" value="Completa el formulario" style="text;html=1;align=center;verticalAlign=middle;resizable=0;points=[];autosize=1;strokeColor=none;fillColor=none;" vertex="1" parent="1">
          <mxGeometry x="100" y="220" width="140" height="30" as="geometry" />
        </mxCell>
        <mxCell id="Qr8qyrYhCx96E9Ala4DI-23" value="" style="endArrow=classic;html=1;rounded=0;" edge="1" parent="1">
          <mxGeometry width="50" height="50" relative="1" as="geometry">
            <mxPoint x="90" y="280" as="sourcePoint" />
            <mxPoint x="450" y="280" as="targetPoint" />
          </mxGeometry>
        </mxCell>
        <mxCell id="Qr8qyrYhCx96E9Ala4DI-24" value="Hace clic en &quot;Confirmar pedido&quot;" style="text;html=1;align=center;verticalAlign=middle;resizable=0;points=[];autosize=1;strokeColor=none;fillColor=none;" vertex="1" parent="1">
          <mxGeometry x="90" y="250" width="190" height="30" as="geometry" />
        </mxCell>
        <mxCell id="Qr8qyrYhCx96E9Ala4DI-35" value="" style="endArrow=classic;html=1;rounded=0;" edge="1" parent="1">
          <mxGeometry width="50" height="50" relative="1" as="geometry">
            <mxPoint x="450" y="305" as="sourcePoint" />
            <mxPoint x="450" y="325" as="targetPoint" />
            <Array as="points">
              <mxPoint x="490" y="305" />
              <mxPoint x="490" y="325" />
            </Array>
          </mxGeometry>
        </mxCell>
        <mxCell id="Qr8qyrYhCx96E9Ala4DI-36" value="Prepara orderData(formData, cartItems)" style="text;html=1;align=center;verticalAlign=middle;resizable=0;points=[];autosize=1;strokeColor=none;fillColor=none;" vertex="1" parent="1">
          <mxGeometry x="445" y="275" width="240" height="30" as="geometry" />
        </mxCell>
        <mxCell id="Qr8qyrYhCx96E9Ala4DI-37" value="" style="endArrow=classic;html=1;rounded=0;" edge="1" parent="1">
          <mxGeometry width="50" height="50" relative="1" as="geometry">
            <mxPoint x="460" y="345" as="sourcePoint" />
            <mxPoint x="690" y="345" as="targetPoint" />
          </mxGeometry>
        </mxCell>
        <mxCell id="Qr8qyrYhCx96E9Ala4DI-38" value="&lt;div&gt;POST /api/orders(orderData)&lt;/div&gt;" style="text;html=1;align=center;verticalAlign=middle;resizable=0;points=[];autosize=1;strokeColor=none;fillColor=none;" vertex="1" parent="1">
          <mxGeometry x="500" y="313" width="180" height="30" as="geometry" />
        </mxCell>
        <mxCell id="Qr8qyrYhCx96E9Ala4DI-39" value="" style="endArrow=classic;html=1;rounded=0;" edge="1" parent="1">
          <mxGeometry width="50" height="50" relative="1" as="geometry">
            <mxPoint x="690" y="375" as="sourcePoint" />
            <mxPoint x="690" y="395" as="targetPoint" />
            <Array as="points">
              <mxPoint x="730" y="375" />
              <mxPoint x="730" y="395" />
            </Array>
          </mxGeometry>
        </mxCell>
        <mxCell id="Qr8qyrYhCx96E9Ala4DI-40" value="&lt;div&gt;Valida exitosamente&amp;nbsp;&lt;/div&gt;&lt;div&gt;todos los datos&lt;/div&gt;" style="text;html=1;align=center;verticalAlign=middle;resizable=0;points=[];autosize=1;strokeColor=none;fillColor=none;" vertex="1" parent="1">
          <mxGeometry x="710" y="343" width="130" height="40" as="geometry" />
        </mxCell>
        <mxCell id="Qr8qyrYhCx96E9Ala4DI-42" value="cookieStore.get(&quot;cartId&quot;)?.value" style="text;html=1;align=center;verticalAlign=middle;resizable=0;points=[];autosize=1;strokeColor=none;fillColor=none;" vertex="1" parent="1">
          <mxGeometry x="720" y="383" width="190" height="30" as="geometry" />
        </mxCell>
        <mxCell id="Qr8qyrYhCx96E9Ala4DI-55" value="" style="endArrow=classic;html=1;rounded=0;" edge="1" parent="1">
          <mxGeometry width="50" height="50" relative="1" as="geometry">
            <mxPoint x="690" y="468" as="sourcePoint" />
            <mxPoint x="1030" y="468" as="targetPoint" />
          </mxGeometry>
        </mxCell>
        <mxCell id="Qr8qyrYhCx96E9Ala4DI-56" value="INSERT INTO orders(&lt;br&gt;&amp;nbsp; &amp;nbsp; &amp;nbsp; &amp;nbsp; order_number, user_id, first_name, last_name, email, phone, address, city, region,&amp;nbsp;&lt;br&gt;&amp;nbsp; &amp;nbsp; &amp;nbsp; &amp;nbsp; postal_code, payment_method, notes, subtotal, shipping, total, status)" style="text;html=1;align=center;verticalAlign=middle;resizable=0;points=[];autosize=1;strokeColor=none;fillColor=none;" vertex="1" parent="1">
          <mxGeometry x="660" y="413" width="490" height="60" as="geometry" />
        </mxCell>
        <mxCell id="Qr8qyrYhCx96E9Ala4DI-57" value="" style="endArrow=classic;html=1;rounded=0;dashed=1;" edge="1" parent="1">
          <mxGeometry width="50" height="50" relative="1" as="geometry">
            <mxPoint x="1030" y="508" as="sourcePoint" />
            <mxPoint x="690" y="508" as="targetPoint" />
          </mxGeometry>
        </mxCell>
        <mxCell id="Qr8qyrYhCx96E9Ala4DI-58" value="Error" style="text;html=1;align=center;verticalAlign=middle;resizable=0;points=[];autosize=1;strokeColor=none;fillColor=none;" vertex="1" parent="1">
          <mxGeometry x="745" y="486" width="50" height="30" as="geometry" />
        </mxCell>
        <mxCell id="Qr8qyrYhCx96E9Ala4DI-72" value="" style="endArrow=classic;html=1;rounded=0;" edge="1" parent="1">
          <mxGeometry width="50" height="50" relative="1" as="geometry">
            <mxPoint x="690" y="545" as="sourcePoint" />
            <mxPoint x="460" y="545" as="targetPoint" />
          </mxGeometry>
        </mxCell>
        <mxCell id="Qr8qyrYhCx96E9Ala4DI-73" value="ERROR &quot;Error al crear el pedido&quot;" style="text;html=1;align=center;verticalAlign=middle;resizable=0;points=[];autosize=1;strokeColor=none;fillColor=none;" vertex="1" parent="1">
          <mxGeometry x="460" y="516" width="200" height="30" as="geometry" />
        </mxCell>
        <mxCell id="Qr8qyrYhCx96E9Ala4DI-74" value="" style="endArrow=classic;html=1;rounded=0;" edge="1" parent="1">
          <mxGeometry width="50" height="50" relative="1" as="geometry">
            <mxPoint x="450" y="627" as="sourcePoint" />
            <mxPoint x="90" y="627" as="targetPoint" />
          </mxGeometry>
        </mxCell>
        <mxCell id="Qr8qyrYhCx96E9Ala4DI-75" value="Muestra error por toast()" style="text;html=1;align=center;verticalAlign=middle;resizable=0;points=[];autosize=1;strokeColor=none;fillColor=none;" vertex="1" parent="1">
          <mxGeometry x="295" y="585" width="150" height="30" as="geometry" />
        </mxCell>
        <mxCell id="Qr8qyrYhCx96E9Ala4DI-76" value="" style="endArrow=classic;html=1;rounded=0;" edge="1" parent="1">
          <mxGeometry width="50" height="50" relative="1" as="geometry">
            <mxPoint x="450" y="585" as="sourcePoint" />
            <mxPoint x="450" y="605" as="targetPoint" />
            <Array as="points">
              <mxPoint x="490" y="585" />
              <mxPoint x="490" y="605" />
            </Array>
          </mxGeometry>
        </mxCell>
        <mxCell id="Qr8qyrYhCx96E9Ala4DI-77" value="Maneja error" style="text;html=1;align=center;verticalAlign=middle;resizable=0;points=[];autosize=1;strokeColor=none;fillColor=none;" vertex="1" parent="1">
          <mxGeometry x="465" y="553" width="90" height="30" as="geometry" />
        </mxCell>
      </root>
    </mxGraphModel>
  </diagram>
</mxfile>
